<?xml version="1.0" encoding="UTF-8" standalone="no"?>
<svg
   xmlns:dc="http://purl.org/dc/elements/1.1/"
   xmlns:cc="http://creativecommons.org/ns#"
   xmlns:rdf="http://www.w3.org/1999/02/22-rdf-syntax-ns#"
   xmlns:svg="http://www.w3.org/2000/svg"
   xmlns="http://www.w3.org/2000/svg"
   xmlns:sodipodi="http://sodipodi.sourceforge.net/DTD/sodipodi-0.dtd"
   xmlns:inkscape="http://www.inkscape.org/namespaces/inkscape"
   viewBox="0 0 715.73 715.73"
   id="svg3147"
   version="1.1"
   inkscape:version="0.48.4 r9939"
   width="100%"
   height="100%"
   sodipodi:docname="pi.svg">
  <metadata
     id="metadata3181">
    <rdf:RDF>
      <cc:Work
         rdf:about="">
        <dc:format>image/svg+xml</dc:format>
        <dc:type
           rdf:resource="http://purl.org/dc/dcmitype/StillImage" />
        <dc:title></dc:title>
      </cc:Work>
    </rdf:RDF>
  </metadata>
  <defs
     id="defs3179" />
  <sodipodi:namedview
     pagecolor="#ffffff"
     bordercolor="#666666"
     borderopacity="1"
     objecttolerance="10"
     gridtolerance="10"
     guidetolerance="10"
     inkscape:pageopacity="0"
     inkscape:pageshadow="2"
     inkscape:window-width="1567"
     inkscape:window-height="898"
     id="namedview3177"
     showgrid="false"
     fit-margin-top="0"
     fit-margin-left="0"
     fit-margin-right="0"
     fit-margin-bottom="0"
     inkscape:zoom="0.73"
     inkscape:cx="139.11843"
     inkscape:cy="378.35864"
     inkscape:window-x="31"
     inkscape:window-y="0"
     inkscape:window-maximized="0"
     inkscape:current-layer="svg3147" />
  <g
     id="g3223"
     transform="translate(77.635464,0)">
    <path
       style="fill:#000000"
       inkscape:connector-curvature="0"
       id="path3149"
       d="m 151.71409,0.01483433 c -3.6193,0.11232 -7.5172,1.44929997 -11.938,4.93749997 -10.83,-4.17629997 -21.33,-5.62709997 -30.72,2.8751 -14.499998,-1.8808 -19.211998,2.0002 -22.781998,6.5311997 -3.183,-0.066 -23.819,-3.272 -33.282,10.844 -23.781,-2.814 -31.297,13.988 -22.781,29.656 -4.8569,7.519 -9.8895,14.947 1.4688,29.281 -4.018,7.9835 -1.5274,16.643996 7.9375,27.124996 -2.4979,11.223 2.4121,19.141 11.219,25.312 -1.6471,15.358 14.084,24.287 18.781,27.469 1.8037,8.9487 5.5629,17.393 23.531,22.062 2.9632,13.336 13.761998,15.639 24.218998,18.438 -34.561998,20.09 -64.200998,46.523 -63.999998,111.38 l -5.0625,9.0312 c -39.6299997,24.1 -75.285,101.56 -19.53,164.52 3.6419,19.708 9.7496,33.864 15.188,49.531 8.1338,63.131 61.217998,92.692 75.218998,96.188 20.517,15.628 42.368,30.457 71.938,40.844 27.875,28.749 58.074,39.706 88.438,39.688 0.44515,-2.8e-4 0.89853,0.005 1.3438,0 30.364,0.0189 60.562,-10.938 88.438,-39.688 29.569,-10.387 51.421,-25.216 71.938,-40.844 14.001,-3.4959 67.085,-33.057 75.219,-96.188 5.4379,-15.667 11.546,-29.823 15.188,-49.531 55.754,-62.965 20.1,-140.43 -19.531,-164.53 l -5.07,-9.03 c 0.20067,-64.852 -29.438,-91.285 -64,-111.38 10.457,-2.7984 21.256,-5.1014 24.219,-18.438 17.968,-4.6698 21.728,-13.114 23.531,-22.062 4.6978,-3.1813 20.428,-12.111 18.781,-27.469 8.8067,-6.1716 13.717,-14.09 11.219,-25.312 9.4649,-10.481 11.956,-19.140996 7.9375,-27.124996 11.36,-14.328 6.32,-21.756 1.47,-29.275 8.51,-15.668 1,-32.47 -22.79,-29.656 -9.46,-14.116 -30.09,-10.91 -33.28,-10.844 -3.57,-4.5309997 -8.28,-8.4119997 -22.78,-6.5311997 -9.39,-8.50219997 -19.89,-7.05139997 -30.72,-2.875 -12.86,-10.148 -21.37,-2.0133 -31.09,1.0624 -15.57,-5.08769997 -19.13,1.881 -26.78,4.7187997 -16.98,-3.5880997 -22.14,4.224 -30.28,12.469 l -9.4688,-0.1875 c -25.611,15.093 -38.334,45.826 -42.844,61.625 -4.5121,-15.802 -17.206,-46.535 -42.812,-61.625 l -9.4688,0.1875 c -8.15,-8.245 -13.31,-16.0569997 -30.29,-12.469 -7.65,-2.8377997 -11.2,-9.80649967 -26.78,-4.7187997 -6.3797,-2.0185 -12.247,-6.21439997 -19.156,-5.99999997 z" />
    <path
       style="fill:#75a928"
       inkscape:connector-curvature="0"
       id="path3151"
       d="m 100.72409,66.414634 c 67.948,35.030996 107.45,63.368996 129.09,87.503996 -11.082,44.418 -68.896,46.445 -90.036,45.199 4.3284,-2.0147 7.9399,-4.4278 9.2205,-8.1357 -5.3045,-3.7698 -24.113,-0.39719 -37.244,-7.7742 5.0441,-1.045 7.4035,-2.063 9.7629,-5.7854 -12.406,-3.9567 -25.768998,-7.3664 -33.627998,-13.921 4.2413,0.0524 8.2012,0.9488 13.739998,-2.8927 -11.111998,-5.9882 -22.968998,-10.734 -32.180998,-19.887 5.7452,-0.14063 11.939,-0.0568 13.74,-2.1695 -10.17,-6.3007 -18.751,-13.308 -25.854,-20.972 8.04,0.97052 11.435,0.13478 13.379,-1.2656 -7.6878,-7.8742 -17.418,-14.523 -22.057,-24.225996 5.9696,2.0575 11.431,2.8451 15.368,-0.1808 -2.6124,-5.8935 -13.805,-9.3696 -20.249,-23.142 6.2844,0.60938 12.95,1.3711 14.283,0 -2.917,-11.884 -7.922,-18.565 -12.831,-25.487 13.45,-0.2 33.828,0.052 32.905,-1.085 l -8.3165,-8.4973 c 13.138,-3.5372 26.581,0.56816 36.339998,3.6159 4.3819,-3.4577 -0.0776,-7.83 -5.4238,-12.294 11.165,1.4906 21.254,4.0574 30.373,7.5934 4.8724,-4.3993 -3.1639,-8.7987 -7.051,-13.198 17.249,3.2726 24.557,7.8707 31.82,12.475 5.2694,-5.0508 0.30166,-9.3433 -3.2543,-13.74 13.006,4.817 19.705,11.036 26.758,17.175 2.3912,-3.2271 6.0749,-5.5924 1.6272,-13.379 9.2342,5.3227 16.189,11.595 21.334,18.622 5.7134,-3.6379 3.4039,-8.613 3.4351,-13.198 9.5966,7.8065 15.687,16.114 23.142,24.226 1.5017,-1.0934 2.8166,-4.8017 3.9775,-10.667 22.895,22.212 55.246,78.157996 8.3165,100.339996 -39.94,-32.94 -87.64,-56.882996 -140.5,-74.843996 z" />
    <path
       style="fill:#75a928"
       inkscape:connector-curvature="0"
       id="path3153"
       d="m 461.25409,66.414634 c -67.94,35.033996 -107.44,63.363996 -129.08,87.503996 11.082,44.418 68.896,46.445 90.036,45.199 -4.3284,-2.0147 -7.9399,-4.4278 -9.2205,-8.1357 5.3045,-3.7698 24.113,-0.39719 37.244,-7.7742 -5.0441,-1.045 -7.4035,-2.063 -9.7629,-5.7854 12.406,-3.9567 25.769,-7.3664 33.628,-13.921 -4.2413,0.0524 -8.2012,0.9488 -13.74,-2.8927 11.112,-5.9882 22.969,-10.734 32.181,-19.887 -5.7452,-0.14063 -11.939,-0.0568 -13.74,-2.1695 10.17,-6.3007 18.751,-13.308 25.854,-20.972 -8.04,0.97052 -11.435,0.13478 -13.379,-1.2656 7.6878,-7.8742 17.418,-14.523 22.057,-24.225996 -5.9696,2.0575 -11.431,2.8451 -15.368,-0.1808 2.6124,-5.8935 13.805,-9.3696 20.249,-23.142 -6.2844,0.60938 -12.95,1.3711 -14.283,0 2.9223,-11.889 7.9275,-18.57 12.836,-25.492 -13.45,-0.19973 -33.828,0.05235 -32.905,-1.0848 l 8.3165,-8.4973 c -13.138,-3.5372 -26.581,0.56816 -36.34,3.6159 -4.3819,-3.4577 0.0776,-7.83 5.4238,-12.294 -11.165,1.4906 -21.254,4.0574 -30.373,7.5934 -4.8724,-4.3993 3.1639,-8.7987 7.051,-13.198 -17.249,3.2726 -24.557,7.8707 -31.82,12.475 -5.2694,-5.0508 -0.30166,-9.3433 3.2543,-13.74 -13.006,4.817 -19.705,11.036 -26.758,17.175 -2.3912,-3.2271 -6.0749,-5.5924 -1.6272,-13.379 -9.2342,5.3227 -16.189,11.595 -21.334,18.622 -5.7134,-3.6379 -3.4039,-8.613 -3.4351,-13.198 -9.5966,7.8065 -15.687,16.114 -23.142,24.226 -1.5017,-1.0934 -2.8166,-4.8017 -3.9775,-10.667 -22.895,22.212 -55.246,78.157996 -8.3165,100.339996 39.919,-32.947 87.616,-56.887996 140.48,-74.848996 z" />
    <path
       style="fill:#bc1142"
       inkscape:connector-curvature="0"
       id="path3155"
       d="m 363.27523,518.72038 a 81.389935,75.051403 0 1 1 -162.77761,0 81.389935,75.051403 0 1 1 162.77761,0 z" />
    <path
       style="fill:#bc1142"
       inkscape:connector-curvature="0"
       id="path3157"
       d="M 234.79232,304.32532 A 72.998843,86.129678 34.034226 0 1 139.82448,448.03759 72.998843,86.129678 34.034226 1 1 234.79232,304.32532 z" />
    <path
       style="fill:#bc1142"
       inkscape:connector-curvature="0"
       id="path3159"
       d="M 325.81608,300.32532 A 86.129678,72.998843 55.965774 0 0 420.78392,444.03759 86.129678,72.998843 55.965774 1 0 325.81608,300.32532 z" />
    <path
       style="fill:#bc1142"
       inkscape:connector-curvature="0"
       id="path3161"
       d="m 66.244092,340.44863 c 36.409998,-9.76 12.292,150.63 -17.333,137.47 -32.587,-26.21 -43.0829997,-102.97 17.333,-137.47 z" />
    <path
       style="fill:#bc1142"
       inkscape:connector-curvature="0"
       id="path3163"
       d="m 487.01409,338.44863 c -36.414,-9.7569 -12.292,150.64 17.333,137.48 32.587,-26.213 43.083,-102.98 -17.333,-137.48 z" />
    <path
       style="fill:#bc1142"
       inkscape:connector-curvature="0"
       id="path3165"
       d="m 363.30409,219.00863 c 62.835,-10.61 115.12,26.722 113.01,94.858 -2.0669,26.121 -136.16,-90.969 -113.01,-94.858 z" />
    <path
       style="fill:#bc1142"
       inkscape:connector-curvature="0"
       id="path3167"
       d="m 189.69409,217.00863 c -62.84,-10.61 -115.119998,26.73 -113.009998,94.86 2.067,26.12 136.159998,-90.97 113.009998,-94.86 z" />
    <path
       style="fill:#bc1142"
       inkscape:connector-curvature="0"
       id="path3169"
       d="m 279.95409,201.11863 c -37.503,-0.97548 -73.495,27.834 -73.582,44.544 -0.10462,20.304 29.651,41.093 73.837,41.62 45.123,0.32321 73.916,-16.64 74.061,-37.594 0.16484,-23.74 -41.039,-48.937 -74.317,-48.571 z" />
    <path
       style="fill:#bc1142"
       inkscape:connector-curvature="0"
       id="path3171"
       d="m 282.24409,617.47863 c 32.697,-1.4271 76.571,10.532 76.657,26.396 0.5427,15.405 -39.79,50.211 -78.826,49.538 -40.427,1.7439 -80.069,-33.116 -79.55,-45.199 -0.60506,-17.716 49.226,-31.548 81.719,-30.735 z" />
    <path
       style="fill:#bc1142"
       inkscape:connector-curvature="0"
       id="path3173"
       d="m 161.47409,523.45863 c 23.279,28.046 33.891,77.319 14.464,91.844 -18.379,11.088 -63.012,6.5216 -94.735998,-39.052 -21.395,-38.242 -18.638,-77.157 -3.6159,-88.589 22.463998,-13.684 57.172998,4.799 83.888998,35.797 z" />
    <path
       style="fill:#bc1142"
       inkscape:connector-curvature="0"
       id="path3175"
       d="m 398.35409,514.56863 c -25.187,29.502 -39.212,83.31 -20.838,100.64 17.568,13.464 64.729,11.582 99.566,-36.756 25.296,-32.465 16.82,-86.682 2.3708,-101.08 -21.464,-16.602 -52.277,4.6449 -81.099,37.188 z" />
  </g>
</svg>
