<?xml version="1.0" encoding="UTF-8" standalone="no"?>
<svg
   xmlns:dc="http://purl.org/dc/elements/1.1/"
   xmlns:cc="http://creativecommons.org/ns#"
   xmlns:rdf="http://www.w3.org/1999/02/22-rdf-syntax-ns#"
   xmlns:svg="http://www.w3.org/2000/svg"
   xmlns="http://www.w3.org/2000/svg"
   xmlns:sodipodi="http://sodipodi.sourceforge.net/DTD/sodipodi-0.dtd"
   xmlns:inkscape="http://www.inkscape.org/namespaces/inkscape"
   height="240"
   width="240"
   version="1.1"
   x="0px"
   y="0px"
   viewBox="0 0 80 80"
   enable-background="new 0 0 100 100"
   xml:space="preserve"
   id="svg5004"
   sodipodi:docname="roomba.svg"
   style="fill:#1a1a1a"
   inkscape:version="0.92.4 5da689c313, 2019-01-14"><metadata
     id="metadata5010"><rdf:RDF><cc:Work
         rdf:about=""><dc:format>image/svg+xml</dc:format><dc:type
           rdf:resource="http://purl.org/dc/dcmitype/StillImage" /><dc:title></dc:title></cc:Work></rdf:RDF></metadata><defs
     id="defs5008" /><sodipodi:namedview
     pagecolor="#ffffff"
     bordercolor="#666666"
     borderopacity="1"
     objecttolerance="10"
     gridtolerance="10"
     guidetolerance="10"
     inkscape:pageopacity="0"
     inkscape:pageshadow="2"
     inkscape:window-width="2560"
     inkscape:window-height="1414"
     id="namedview5006"
     showgrid="false"
     fit-margin-top="0"
     fit-margin-left="0"
     fit-margin-right="0"
     fit-margin-bottom="0"
     inkscape:zoom="3.9766667"
     inkscape:cx="120"
     inkscape:cy="120"
     inkscape:window-x="0"
     inkscape:window-y="26"
     inkscape:window-maximized="0"
     inkscape:current-layer="svg5004" /><g
     id="g4786"
     transform="translate(-10,-10)"><path
       d="m 50,33 c -9.389,0 -17,7.611 -17,17 0,9.389 7.611,17 17,17 9.389,0 17,-7.611 17,-17 0,-9.389 -7.611,-17 -17,-17 z m 0,23 c -3.314,0 -6,-2.687 -6,-6 0,-3.314 2.686,-6 6,-6 3.313,0 6,2.686 6,6 0,3.313 -2.687,6 -6,6 z"
       id="path4784"
       inkscape:connector-curvature="0" /></g><rect
     x="30"
     y="39"
     width="20"
     height="2"
     id="rect4788" /><path
     d="M 45,7"
     id="path4790"
     inkscape:connector-curvature="0" /><path
     d="M 36.466,79.836 C 40,78 40,78 43.534,79.836 63.969,78.045 80,60.899 80,40 80,17.908 62.092,0 40,0 17.908,0 0,17.908 0,40 0,60.899 16.03,78.045 36.466,79.836 Z M 78,40 C 78,58.925 64.094,74.66 45.963,77.531 44.871,77.703 43.97,76.842 43.392,75.9 42.692,74.76 41.438,74 40,74 c -1.438,0 -2.691,0.761 -3.392,1.9 -0.578,0.941 -1.479,1.803 -2.57,1.631 C 15.907,74.66 2,58.925 2,40 2,19.047 19.047,2 40,2 60.953,2 78,19.047 78,40 Z"
     id="path4792"
     inkscape:connector-curvature="0" /><g
     id="g4796"
     transform="translate(-10,-10)"><path
       d="m 73.428,40.5 c -0.944,0 -1.849,-0.538 -2.271,-1.451 C 67.351,30.818 59.046,25.5 50,25.5 c -9.047,0 -17.351,5.318 -21.155,13.549 -0.58,1.253 -2.065,1.8 -3.318,1.221 -1.253,-0.58 -1.8,-2.065 -1.221,-3.318 C 28.925,26.958 39.011,20.5 50,20.5 c 10.988,0 21.074,6.458 25.695,16.451 0.579,1.253 0.033,2.739 -1.221,3.318 -0.338,0.157 -0.696,0.231 -1.046,0.231 z"
       id="path4794"
       inkscape:connector-curvature="0" /></g><g
     id="g5002"
     transform="translate(-10,-10)"><path
       d="m 67.82,14.189 c 0.039,0.02 0.077,0.04 0.116,0.06 -0.039,-0.02 -0.077,-0.04 -0.116,-0.06 z"
       id="path4798"
       inkscape:connector-curvature="0" /><path
       d="m 66.138,13.4 c 0.053,0.023 0.104,0.048 0.157,0.071 C 66.242,13.448 66.19,13.423 66.138,13.4 Z"
       id="path4800"
       inkscape:connector-curvature="0" /><path
       d="m 15.05,30.548 c 0.136,-0.244 0.277,-0.486 0.418,-0.727 -0.142,0.241 -0.282,0.483 -0.418,0.727 z"
       id="path4802"
       inkscape:connector-curvature="0" /><path
       d="m 64.417,12.688 c 0.06,0.023 0.119,0.047 0.179,0.071 -0.06,-0.023 -0.119,-0.047 -0.179,-0.071 z"
       id="path4804"
       inkscape:connector-curvature="0" /><path
       d="m 60.869,11.507 c 0.064,0.018 0.129,0.036 0.193,0.055 -0.064,-0.019 -0.128,-0.037 -0.193,-0.055 z"
       id="path4806"
       inkscape:connector-curvature="0" /><path
       d="m 16.009,28.919 c 0.139,-0.224 0.283,-0.444 0.426,-0.665 -0.143,0.221 -0.287,0.441 -0.426,0.665 z"
       id="path4808"
       inkscape:connector-curvature="0" /><path
       d="m 62.658,12.057 c 0.064,0.021 0.129,0.043 0.193,0.065 -0.064,-0.022 -0.128,-0.044 -0.193,-0.065 z"
       id="path4810"
       inkscape:connector-curvature="0" /><path
       d="m 17.041,27.341 c 0.137,-0.198 0.279,-0.393 0.419,-0.589 -0.141,0.196 -0.282,0.391 -0.419,0.589 z"
       id="path4812"
       inkscape:connector-curvature="0" /><path
       d="m 81.467,25.321 c 0.13,0.165 0.262,0.328 0.389,0.495 -0.127,-0.167 -0.259,-0.33 -0.389,-0.495 z"
       id="path4814"
       inkscape:connector-curvature="0" /><path
       d="m 69.462,15.056 c 0.016,0.008 0.03,0.018 0.046,0.026 -0.016,-0.009 -0.03,-0.018 -0.046,-0.026 z"
       id="path4816"
       inkscape:connector-curvature="0" /><path
       d="m 13.359,33.952 c 0.123,-0.28 0.249,-0.559 0.378,-0.836 -0.129,0.277 -0.255,0.556 -0.378,0.836 z"
       id="path4818"
       inkscape:connector-curvature="0" /><path
       d="m 80.372,23.986 c 0.104,0.121 0.21,0.238 0.312,0.36 -0.102,-0.122 -0.208,-0.24 -0.312,-0.36 z"
       id="path4820"
       inkscape:connector-curvature="0" /><path
       d="m 79.312,22.793 c 0.044,0.047 0.091,0.093 0.135,0.141 -0.045,-0.048 -0.092,-0.093 -0.135,-0.141 z"
       id="path4822"
       inkscape:connector-curvature="0" /><path
       d="m 14.166,32.227 c 0.131,-0.263 0.265,-0.524 0.402,-0.784 -0.137,0.259 -0.272,0.52 -0.402,0.784 z"
       id="path4824"
       inkscape:connector-curvature="0" /><path
       d="m 38.935,11.563 c 0.066,-0.019 0.133,-0.038 0.199,-0.056 -0.067,0.018 -0.133,0.037 -0.199,0.056 z"
       id="path4826"
       inkscape:connector-curvature="0" /><path
       d="m 30.484,15.086 c 0.019,-0.01 0.037,-0.021 0.056,-0.032 -0.019,0.01 -0.037,0.022 -0.056,0.032 z"
       id="path4828"
       inkscape:connector-curvature="0" /><path
       d="m 82.54,26.751 c 0.14,0.196 0.282,0.391 0.419,0.589 -0.137,-0.198 -0.278,-0.393 -0.419,-0.589 z"
       id="path4830"
       inkscape:connector-curvature="0" /><path
       d="m 40.764,11.084 c 0.062,-0.015 0.124,-0.029 0.186,-0.043 -0.062,0.014 -0.124,0.028 -0.186,0.043 z"
       id="path4832"
       inkscape:connector-curvature="0" /><path
       d="m 35.399,12.762 c 0.063,-0.025 0.125,-0.05 0.188,-0.074 -0.063,0.023 -0.125,0.049 -0.188,0.074 z"
       id="path4834"
       inkscape:connector-curvature="0" /><path
       d="m 20.555,22.934 c 0.043,-0.047 0.09,-0.093 0.134,-0.14 -0.044,0.047 -0.091,0.092 -0.134,0.14 z"
       id="path4836"
       inkscape:connector-curvature="0" /><path
       d="m 37.146,12.123 c 0.066,-0.022 0.132,-0.045 0.199,-0.067 -0.067,0.022 -0.133,0.045 -0.199,0.067 z"
       id="path4838"
       inkscape:connector-curvature="0" /><path
       d="m 32.059,14.251 c 0.041,-0.021 0.082,-0.042 0.123,-0.063 -0.041,0.021 -0.081,0.042 -0.123,0.063 z"
       id="path4840"
       inkscape:connector-curvature="0" /><path
       d="m 59.055,11.042 c 0.06,0.014 0.119,0.027 0.178,0.041 -0.059,-0.014 -0.119,-0.027 -0.178,-0.041 z"
       id="path4842"
       inkscape:connector-curvature="0" /><path
       d="m 18.145,25.815 c 0.126,-0.167 0.258,-0.329 0.388,-0.494 -0.13,0.165 -0.262,0.327 -0.388,0.494 z"
       id="path4844"
       inkscape:connector-curvature="0" /><path
       d="m 57.218,10.662 c 0.05,0.009 0.1,0.018 0.149,0.026 -0.05,-0.008 -0.099,-0.017 -0.149,-0.026 z"
       id="path4846"
       inkscape:connector-curvature="0" /><path
       d="m 55.366,10.369 c 0.034,0.004 0.069,0.008 0.104,0.013 -0.034,-0.005 -0.07,-0.008 -0.104,-0.013 z"
       id="path4848"
       inkscape:connector-curvature="0" /><path
       d="m 44.531,10.382 c 0.034,-0.005 0.069,-0.008 0.103,-0.013 -0.034,0.005 -0.069,0.008 -0.103,0.013 z"
       id="path4850"
       inkscape:connector-curvature="0" /><path
       d="m 42.629,10.689 c 0.053,-0.01 0.105,-0.019 0.158,-0.028 -0.052,0.01 -0.105,0.019 -0.158,0.028 z"
       id="path4852"
       inkscape:connector-curvature="0" /><path
       d="m 19.316,24.346 c 0.103,-0.123 0.209,-0.241 0.313,-0.362 -0.103,0.121 -0.21,0.24 -0.313,0.362 z"
       id="path4854"
       inkscape:connector-curvature="0" /><path
       d="m 85.433,31.441 c 0.137,0.261 0.271,0.522 0.402,0.786 -0.131,-0.264 -0.266,-0.525 -0.402,-0.786 z"
       id="path4856"
       inkscape:connector-curvature="0" /><path
       d="m 10.963,41.286 c 0.076,-0.342 0.151,-0.685 0.236,-1.023 -0.084,0.339 -0.159,0.681 -0.236,1.023 z"
       id="path4858"
       inkscape:connector-curvature="0" /><path
       d="m 87.694,36.606 c 0.109,0.307 0.212,0.617 0.314,0.928 -0.102,-0.311 -0.204,-0.621 -0.314,-0.928 z"
       id="path4860"
       inkscape:connector-curvature="0" /><path
       d="m 89.225,42.148 c 0.071,0.358 0.132,0.72 0.193,1.081 -0.062,-0.362 -0.122,-0.723 -0.193,-1.081 z"
       id="path4862"
       inkscape:connector-curvature="0" /><path
       d="m 88.801,40.263 c 0.085,0.338 0.16,0.681 0.236,1.023 -0.076,-0.342 -0.151,-0.684 -0.236,-1.023 z"
       id="path4864"
       inkscape:connector-curvature="0" /><path
       d="m 88.29,38.415 c 0.097,0.323 0.187,0.648 0.276,0.975 -0.089,-0.327 -0.178,-0.652 -0.276,-0.975 z"
       id="path4866"
       inkscape:connector-curvature="0" /><path
       d="m 11.434,39.39 c 0.089,-0.327 0.179,-0.653 0.277,-0.976 -0.098,0.323 -0.188,0.649 -0.277,0.976 z"
       id="path4868"
       inkscape:connector-curvature="0" /><path
       d="m 10.583,43.225 c 0.062,-0.36 0.121,-0.72 0.192,-1.076 -0.071,0.355 -0.13,0.716 -0.192,1.076 z"
       id="path4870"
       inkscape:connector-curvature="0" /><path
       d="m 10.098,47.333 c 0.029,-0.44 0.057,-0.881 0.101,-1.317 -0.044,0.436 -0.072,0.877 -0.101,1.317 z"
       id="path4872"
       inkscape:connector-curvature="0" /><path
       d="m 89.802,46.017 c 0.043,0.434 0.07,0.873 0.1,1.312 -0.03,-0.439 -0.057,-0.877 -0.1,-1.312 z"
       id="path4874"
       inkscape:connector-curvature="0" /><path
       d="m 10,50 c 0,-0.672 0.018,-1.34 0.051,-2.004 C 10.018,48.66 10,49.328 10,50 Z"
       id="path4876"
       inkscape:connector-curvature="0" /><path
       d="M 89.949,47.996 C 89.982,48.66 90,49.328 90,50 90,49.328 89.982,48.66 89.949,47.996 Z"
       id="path4878"
       inkscape:connector-curvature="0" /><path
       d="m 10.293,45.227 c 0.046,-0.387 0.09,-0.775 0.147,-1.159 -0.057,0.384 -0.101,0.772 -0.147,1.159 z"
       id="path4880"
       inkscape:connector-curvature="0" /><path
       d="m 89.56,44.067 c 0.057,0.383 0.101,0.771 0.146,1.158 -0.046,-0.387 -0.09,-0.775 -0.146,-1.158 z"
       id="path4882"
       inkscape:connector-curvature="0" /><path
       d="m 86.263,33.115 c 0.129,0.277 0.255,0.557 0.378,0.837 -0.123,-0.28 -0.249,-0.559 -0.378,-0.837 z"
       id="path4884"
       inkscape:connector-curvature="0" /><path
       d="m 12.634,35.722 c 0.113,-0.296 0.229,-0.591 0.348,-0.883 -0.12,0.292 -0.234,0.587 -0.348,0.883 z"
       id="path4886"
       inkscape:connector-curvature="0" /><path
       d="m 84.53,29.818 c 0.143,0.243 0.284,0.486 0.421,0.732 -0.137,-0.246 -0.278,-0.489 -0.421,-0.732 z"
       id="path4888"
       inkscape:connector-curvature="0" /><path
       d="m 11.991,37.535 c 0.102,-0.311 0.205,-0.622 0.314,-0.929 -0.109,0.307 -0.212,0.618 -0.314,0.929 z"
       id="path4890"
       inkscape:connector-curvature="0" /><path
       d="m 33.699,13.474 c 0.056,-0.025 0.111,-0.051 0.167,-0.076 -0.055,0.025 -0.111,0.051 -0.167,0.076 z"
       id="path4892"
       inkscape:connector-curvature="0" /><path
       d="m 87.018,34.838 c 0.12,0.292 0.235,0.587 0.349,0.883 -0.114,-0.295 -0.229,-0.59 -0.349,-0.883 z"
       id="path4894"
       inkscape:connector-curvature="0" /><path
       d="m 83.564,28.253 c 0.145,0.222 0.288,0.442 0.428,0.667 -0.139,-0.224 -0.283,-0.445 -0.428,-0.667 z"
       id="path4896"
       inkscape:connector-curvature="0" /><path
       d="m 10.44,44.068 c 0.042,-0.283 0.095,-0.563 0.143,-0.843 -0.048,0.281 -0.1,0.56 -0.143,0.843 z"
       id="path4898"
       inkscape:connector-curvature="0" /><path
       d="m 13.737,33.116 c 0.14,-0.298 0.282,-0.595 0.428,-0.89 -0.146,0.295 -0.289,0.592 -0.428,0.89 z"
       id="path4900"
       inkscape:connector-curvature="0" /><path
       d="m 12.306,36.605 c 0.105,-0.296 0.216,-0.591 0.329,-0.884 -0.113,0.294 -0.224,0.588 -0.329,0.884 z"
       id="path4902"
       inkscape:connector-curvature="0" /><path
       d="m 32.182,14.188 c 0.5,-0.249 1.006,-0.486 1.517,-0.714 -0.511,0.229 -1.017,0.465 -1.517,0.714 z"
       id="path4904"
       inkscape:connector-curvature="0" /><path
       d="m 10.051,47.996 c 0.011,-0.222 0.033,-0.441 0.047,-0.663 -0.014,0.221 -0.036,0.44 -0.047,0.663 z"
       id="path4906"
       inkscape:connector-curvature="0" /><path
       d="m 30.541,15.054 c 0.5,-0.278 1.006,-0.545 1.519,-0.802 -0.513,0.257 -1.02,0.523 -1.519,0.802 z"
       id="path4908"
       inkscape:connector-curvature="0" /><path
       d="m 10.199,46.016 c 0.026,-0.265 0.063,-0.526 0.095,-0.789 -0.032,0.263 -0.069,0.524 -0.095,0.789 z"
       id="path4910"
       inkscape:connector-curvature="0" /><path
       d="m 10.775,42.148 c 0.058,-0.29 0.124,-0.575 0.188,-0.862 -0.064,0.287 -0.13,0.573 -0.188,0.862 z"
       id="path4912"
       inkscape:connector-curvature="0" /><path
       d="m 17.46,26.752 c 0.225,-0.314 0.451,-0.629 0.685,-0.937 -0.234,0.308 -0.46,0.622 -0.685,0.937 z"
       id="path4914"
       inkscape:connector-curvature="0" /><path
       d="m 16.435,28.254 c 0.199,-0.307 0.399,-0.612 0.606,-0.913 -0.207,0.301 -0.407,0.606 -0.606,0.913 z"
       id="path4916"
       inkscape:connector-curvature="0" /><path
       d="m 11.199,40.263 c 0.073,-0.293 0.154,-0.583 0.234,-0.873 -0.079,0.291 -0.161,0.58 -0.234,0.873 z"
       id="path4918"
       inkscape:connector-curvature="0" /><path
       d="m 11.71,38.415 c 0.089,-0.295 0.185,-0.587 0.281,-0.88 -0.095,0.292 -0.191,0.584 -0.281,0.88 z"
       id="path4920"
       inkscape:connector-curvature="0" /><path
       d="m 12.982,34.838 c 0.122,-0.297 0.248,-0.593 0.377,-0.886 -0.129,0.294 -0.255,0.589 -0.377,0.886 z"
       id="path4922"
       inkscape:connector-curvature="0" /><path
       d="m 14.567,31.442 c 0.158,-0.3 0.317,-0.599 0.482,-0.895 -0.164,0.297 -0.324,0.595 -0.482,0.895 z"
       id="path4924"
       inkscape:connector-curvature="0" /><path
       d="m 18.533,25.321 c 0.258,-0.328 0.516,-0.656 0.784,-0.975 -0.268,0.32 -0.526,0.647 -0.784,0.975 z"
       id="path4926"
       inkscape:connector-curvature="0" /><path
       d="m 19.63,23.984 c 0.304,-0.354 0.609,-0.708 0.925,-1.051 -0.316,0.344 -0.621,0.697 -0.925,1.051 z"
       id="path4928"
       inkscape:connector-curvature="0" /><path
       d="m 15.468,29.821 c 0.177,-0.303 0.356,-0.604 0.541,-0.902 -0.185,0.298 -0.364,0.599 -0.541,0.902 z"
       id="path4930"
       inkscape:connector-curvature="0" /><path
       d="m 85.835,32.227 c 0.146,0.294 0.288,0.59 0.428,0.888 -0.14,-0.298 -0.283,-0.594 -0.428,-0.888 z"
       id="path4932"
       inkscape:connector-curvature="0" /><path
       d="m 86.641,33.953 c 0.129,0.293 0.255,0.588 0.377,0.886 -0.122,-0.298 -0.248,-0.593 -0.377,-0.886 z"
       id="path4934"
       inkscape:connector-curvature="0" /><path
       d="m 80.684,24.346 c 0.268,0.319 0.525,0.647 0.783,0.976 -0.258,-0.329 -0.516,-0.656 -0.783,-0.976 z"
       id="path4936"
       inkscape:connector-curvature="0" /><path
       d="m 88.009,37.534 c 0.096,0.293 0.191,0.585 0.281,0.881 -0.09,-0.296 -0.186,-0.588 -0.281,-0.881 z"
       id="path4938"
       inkscape:connector-curvature="0" /><path
       d="m 84.951,30.55 c 0.165,0.295 0.324,0.593 0.481,0.892 -0.157,-0.3 -0.316,-0.597 -0.481,-0.892 z"
       id="path4940"
       inkscape:connector-curvature="0" /><path
       d="m 87.366,35.722 c 0.112,0.293 0.223,0.587 0.328,0.884 -0.105,-0.297 -0.215,-0.591 -0.328,-0.884 z"
       id="path4942"
       inkscape:connector-curvature="0" /><path
       d="m 83.992,28.92 c 0.185,0.296 0.362,0.597 0.538,0.898 -0.176,-0.301 -0.354,-0.602 -0.538,-0.898 z"
       id="path4944"
       inkscape:connector-curvature="0" /><path
       d="m 81.855,25.816 c 0.234,0.307 0.459,0.621 0.685,0.936 -0.226,-0.315 -0.45,-0.629 -0.685,-0.936 z"
       id="path4946"
       inkscape:connector-curvature="0" /><path
       d="m 82.959,27.341 c 0.207,0.3 0.407,0.606 0.605,0.913 -0.198,-0.307 -0.398,-0.613 -0.605,-0.913 z"
       id="path4948"
       inkscape:connector-curvature="0" /><path
       d="m 88.566,39.39 c 0.08,0.29 0.161,0.581 0.234,0.874 C 88.728,39.97 88.646,39.68 88.566,39.39 Z"
       id="path4950"
       inkscape:connector-curvature="0" /><path
       d="m 89.037,41.286 c 0.063,0.287 0.13,0.573 0.188,0.862 -0.058,-0.289 -0.124,-0.575 -0.188,-0.862 z"
       id="path4952"
       inkscape:connector-curvature="0" /><path
       d="m 79.312,22.793 c -2.835,-3.054 -6.142,-5.662 -9.804,-7.712 3.663,2.05 6.968,4.66 9.804,7.712 z"
       id="path4954"
       inkscape:connector-curvature="0" /><path
       d="m 30.484,15.086 c -3.659,2.05 -6.962,4.656 -9.796,7.708 2.834,-3.051 6.137,-5.659 9.796,-7.708 z"
       id="path4956"
       inkscape:connector-curvature="0" /><path
       d="m 89.418,43.229 c 0.048,0.279 0.1,0.557 0.142,0.838 -0.042,-0.281 -0.095,-0.559 -0.142,-0.838 z"
       id="path4958"
       inkscape:connector-curvature="0" /><path
       d="m 89.901,47.329 c 0.015,0.223 0.037,0.443 0.048,0.667 -0.011,-0.224 -0.033,-0.445 -0.048,-0.667 z"
       id="path4960"
       inkscape:connector-curvature="0" /><path
       d="m 89.706,45.225 c 0.032,0.264 0.069,0.526 0.096,0.792 -0.027,-0.266 -0.064,-0.528 -0.096,-0.792 z"
       id="path4962"
       inkscape:connector-curvature="0" /><path
       d="m 64.596,12.759 c 0.52,0.204 1.033,0.417 1.542,0.641 -0.509,-0.225 -1.023,-0.437 -1.542,-0.641 z"
       id="path4964"
       inkscape:connector-curvature="0" /><path
       d="m 42.788,10.661 c 0.577,-0.105 1.158,-0.199 1.743,-0.279 -0.586,0.08 -1.166,0.174 -1.743,0.279 z"
       id="path4966"
       inkscape:connector-curvature="0" /><path
       d="m 44.633,10.369 c 0.605,-0.081 1.213,-0.15 1.826,-0.204 -0.612,0.054 -1.221,0.123 -1.826,0.204 z"
       id="path4968"
       inkscape:connector-curvature="0" /><path
       d="m 79.446,22.934 c 0.316,0.344 0.621,0.697 0.926,1.052 -0.304,-0.355 -0.61,-0.708 -0.926,-1.052 z"
       id="path4970"
       inkscape:connector-curvature="0" /><path
       d="m 55.47,10.382 c 0.587,0.08 1.17,0.175 1.748,0.28 -0.579,-0.105 -1.161,-0.2 -1.748,-0.28 z"
       id="path4972"
       inkscape:connector-curvature="0" /><path
       d="m 53.54,10.165 c 0.613,0.054 1.222,0.123 1.826,0.204 -0.604,-0.081 -1.213,-0.15 -1.826,-0.204 z"
       id="path4974"
       inkscape:connector-curvature="0" /><path
       d="m 35.587,12.688 c 0.514,-0.199 1.034,-0.387 1.558,-0.564 -0.524,0.177 -1.043,0.364 -1.558,0.564 z"
       id="path4976"
       inkscape:connector-curvature="0" /><path
       d="m 39.134,11.506 c 0.539,-0.152 1.083,-0.293 1.63,-0.422 -0.548,0.129 -1.091,0.27 -1.63,0.422 z"
       id="path4978"
       inkscape:connector-curvature="0" /><path
       d="m 37.345,12.056 c 0.525,-0.175 1.055,-0.339 1.59,-0.493 -0.535,0.153 -1.065,0.317 -1.59,0.493 z"
       id="path4980"
       inkscape:connector-curvature="0" /><path
       d="m 40.95,11.041 c 0.556,-0.129 1.116,-0.247 1.68,-0.352 -0.565,0.105 -1.124,0.223 -1.68,0.352 z"
       id="path4982"
       inkscape:connector-curvature="0" /><path
       d="m 66.295,13.471 c 0.514,0.229 1.023,0.468 1.525,0.718 -0.502,-0.25 -1.011,-0.488 -1.525,-0.718 z"
       id="path4984"
       inkscape:connector-curvature="0" /><path
       d="m 57.367,10.688 c 0.567,0.106 1.13,0.224 1.688,0.354 -0.558,-0.129 -1.12,-0.248 -1.688,-0.354 z"
       id="path4986"
       inkscape:connector-curvature="0" /><path
       d="m 67.937,14.249 c 0.515,0.259 1.024,0.526 1.525,0.807 -0.501,-0.281 -1.011,-0.548 -1.525,-0.807 z"
       id="path4988"
       inkscape:connector-curvature="0" /><path
       d="m 33.867,13.398 c 0.505,-0.223 1.016,-0.435 1.532,-0.637 -0.516,0.203 -1.027,0.414 -1.532,0.637 z"
       id="path4990"
       inkscape:connector-curvature="0" /><path
       d="m 59.232,11.083 c 0.55,0.13 1.096,0.271 1.637,0.424 -0.541,-0.153 -1.086,-0.294 -1.637,-0.424 z"
       id="path4992"
       inkscape:connector-curvature="0" /><path
       d="m 62.852,12.122 c 0.526,0.179 1.049,0.367 1.565,0.566 -0.517,-0.199 -1.038,-0.387 -1.565,-0.566 z"
       id="path4994"
       inkscape:connector-curvature="0" /><path
       d="m 61.063,11.562 c 0.537,0.154 1.068,0.319 1.596,0.495 -0.528,-0.176 -1.059,-0.341 -1.596,-0.495 z"
       id="path4996"
       inkscape:connector-curvature="0" /><path
       d="M 89.949,47.996 C 89.938,47.772 89.916,47.552 89.901,47.329 89.872,46.891 89.844,46.452 89.801,46.017 89.775,45.751 89.738,45.489 89.705,45.225 89.659,44.838 89.615,44.45 89.559,44.067 89.517,43.786 89.465,43.508 89.417,43.229 89.355,42.868 89.295,42.506 89.224,42.148 89.166,41.859 89.1,41.573 89.036,41.286 88.96,40.944 88.885,40.601 88.8,40.263 88.727,39.97 88.646,39.68 88.566,39.389 88.476,39.063 88.386,38.737 88.29,38.414 88.2,38.118 88.104,37.826 88.009,37.533 87.906,37.222 87.804,36.912 87.695,36.605 87.59,36.308 87.479,36.014 87.367,35.721 87.254,35.425 87.138,35.13 87.018,34.838 86.896,34.541 86.77,34.246 86.641,33.952 86.518,33.671 86.392,33.392 86.263,33.115 86.123,32.817 85.981,32.521 85.835,32.227 85.704,31.963 85.569,31.702 85.433,31.441 85.276,31.142 85.117,30.844 84.952,30.549 84.815,30.303 84.674,30.06 84.531,29.817 84.355,29.516 84.177,29.215 83.993,28.919 83.853,28.695 83.71,28.474 83.565,28.252 83.367,27.946 83.167,27.64 82.96,27.339 82.823,27.14 82.681,26.945 82.541,26.75 82.315,26.436 82.091,26.122 81.856,25.814 81.729,25.647 81.597,25.484 81.467,25.319 81.209,24.991 80.951,24.663 80.684,24.343 80.582,24.221 80.476,24.104 80.372,23.983 80.067,23.629 79.763,23.275 79.446,22.931 79.402,22.883 79.355,22.838 79.311,22.79 76.475,19.738 73.17,17.127 69.507,15.078 69.491,15.07 69.477,15.06 69.461,15.052 68.96,14.772 68.45,14.504 67.936,14.245 67.897,14.225 67.859,14.205 67.82,14.185 67.318,13.935 66.808,13.696 66.295,13.467 66.242,13.444 66.191,13.419 66.138,13.396 65.629,13.172 65.116,12.959 64.596,12.755 64.536,12.732 64.477,12.708 64.417,12.684 63.9,12.485 63.378,12.296 62.852,12.118 62.788,12.096 62.723,12.074 62.659,12.053 62.132,11.877 61.6,11.712 61.063,11.558 60.999,11.539 60.934,11.521 60.87,11.503 60.329,11.35 59.783,11.209 59.233,11.079 59.174,11.065 59.115,11.052 59.055,11.038 58.497,10.909 57.935,10.79 57.367,10.684 57.317,10.675 57.267,10.666 57.218,10.658 56.64,10.553 56.057,10.458 55.47,10.378 55.436,10.373 55.401,10.369 55.366,10.365 54.762,10.284 54.153,10.215 53.54,10.161 52.373,10.063 51.194,10 50,10 c -1.194,0 -2.373,0.063 -3.541,0.165 -0.613,0.054 -1.221,0.123 -1.826,0.204 -0.034,0.005 -0.068,0.008 -0.103,0.013 -0.585,0.08 -1.166,0.174 -1.743,0.279 -0.053,0.01 -0.105,0.019 -0.158,0.028 -0.564,0.105 -1.124,0.223 -1.68,0.352 -0.062,0.014 -0.124,0.028 -0.186,0.043 -0.548,0.129 -1.091,0.271 -1.63,0.422 -0.066,0.019 -0.133,0.038 -0.199,0.056 -0.535,0.154 -1.065,0.318 -1.59,0.493 -0.067,0.022 -0.133,0.045 -0.199,0.067 -0.524,0.178 -1.044,0.366 -1.558,0.564 -0.063,0.024 -0.125,0.049 -0.188,0.074 -0.516,0.202 -1.027,0.414 -1.532,0.637 -0.056,0.024 -0.112,0.051 -0.167,0.076 -0.511,0.228 -1.018,0.465 -1.517,0.714 -0.042,0.021 -0.082,0.042 -0.123,0.063 -0.512,0.257 -1.019,0.524 -1.519,0.802 -0.019,0.011 -0.038,0.022 -0.056,0.032 -3.66,2.049 -6.962,4.657 -9.796,7.708 -0.044,0.047 -0.09,0.093 -0.134,0.14 -0.316,0.343 -0.621,0.696 -0.925,1.051 -0.104,0.121 -0.211,0.239 -0.313,0.362 -0.268,0.319 -0.526,0.647 -0.784,0.975 -0.129,0.165 -0.261,0.327 -0.388,0.494 -0.234,0.308 -0.46,0.623 -0.685,0.937 -0.14,0.196 -0.282,0.391 -0.419,0.589 -0.207,0.301 -0.407,0.606 -0.606,0.913 -0.143,0.221 -0.287,0.441 -0.426,0.665 -0.185,0.298 -0.364,0.599 -0.541,0.902 -0.141,0.241 -0.282,0.483 -0.418,0.727 -0.165,0.296 -0.325,0.594 -0.482,0.895 -0.137,0.26 -0.271,0.521 -0.402,0.784 -0.146,0.294 -0.289,0.591 -0.428,0.89 -0.129,0.277 -0.255,0.556 -0.378,0.836 -0.129,0.293 -0.255,0.589 -0.377,0.886 -0.12,0.292 -0.235,0.587 -0.348,0.883 -0.112,0.293 -0.223,0.587 -0.329,0.884 -0.109,0.308 -0.212,0.618 -0.314,0.929 -0.096,0.292 -0.191,0.584 -0.281,0.88 -0.098,0.323 -0.188,0.649 -0.277,0.976 -0.08,0.29 -0.161,0.58 -0.234,0.873 -0.084,0.338 -0.16,0.681 -0.236,1.023 -0.064,0.287 -0.13,0.573 -0.188,0.862 -0.071,0.356 -0.131,0.716 -0.192,1.076 -0.048,0.281 -0.101,0.561 -0.143,0.843 -0.057,0.384 -0.101,0.772 -0.147,1.159 -0.031,0.263 -0.069,0.524 -0.095,0.789 -0.043,0.437 -0.071,0.877 -0.101,1.317 -0.014,0.221 -0.037,0.44 -0.047,0.663 C 10.018,48.66 10,49.328 10,50 10,72.092 27.909,90 50,90 72.092,90 90,72.092 90,50 90,49.328 89.982,48.66 89.949,47.996 Z M 50,89 C 28.495,89 11,71.505 11,50 11,28.495 28.495,11 50,11 71.505,11 89,28.495 89,50 89,71.505 71.505,89 50,89 Z"
       id="path4998"
       inkscape:connector-curvature="0" /><path
       d="M 50,11 C 28.495,11 11,28.495 11,50 11,71.505 28.495,89 50,89 71.505,89 89,71.505 89,50 89,28.495 71.505,11 50,11 Z m 0,77 C 29.047,88 12,70.953 12,50 12,31.075 25.907,15.339 44.037,12.469 c 1.091,-0.172 1.993,0.689 2.571,1.63 C 47.309,15.239 48.563,16 50,16 c 1.438,0 2.691,-0.761 3.392,-1.9 0.578,-0.941 1.479,-1.803 2.57,-1.63 C 74.093,15.339 88,31.075 88,50 88,70.953 70.953,88 50,88 Z"
       id="path5000"
       inkscape:connector-curvature="0" /></g></svg>